# xmcd
#
# Track frame offsets:
#   150
#   14332
#   31276
#   53872
#   66293
#   89010
#   100674
#   127230
#   143258
#   158381
#   172588
#   182824
#
# Disc length: 2585 seconds
#
# Revision: 0
# Processed by: cddbd v1.5PL3 Copyright (c) Steve Scherf et al.
# Submitted via: uFREEDB ActiveX Control 1.5
#
DISCID=920a170c
DTITLE=Geraldinho Alvarenga - Saray Brasileiro
DYEAR=1900
DGENRE=UnClassifiable
TTITLE0=Zanzando
TTITLE1=Chorinho pro Baby
TTITLE2=Doce Mulher
TTITLE3=O carnaval que vem
TTITLE4=Amorosa
TTITLE5=Aos trancos e barranco
TTITLE6=Sete cordas que choram
TTITLE7=Tropical
TTITLE8=Chorinho pro Pereira
TTITLE9=Juá-de-capote
TTITLE10=Vagalume
TTITLE11=Meu cavaquinho no frevo
EXTD=
EXTT0=
EXTT1=
EXTT2=
EXTT3=
EXTT4=
EXTT5=
EXTT6=
EXTT7=
EXTT8=
EXTT9=
EXTT10=
EXTT11=
PLAYORDER=
